<svg width="120" height="120" viewBox="0 0 120 120" fill="none" xmlns="http://www.w3.org/2000/svg">
  <rect width="120" height="120" rx="24" fill="#0066CC"/>
  <path d="M60 30C44.536 30 32 42.536 32 58C32 73.464 44.536 86 60 86C75.464 86 88 73.464 88 58C88 42.536 75.464 30 60 30ZM60 78C50.058 78 42 69.942 42 60C42 50.058 50.058 42 60 42C69.942 42 78 50.058 78 60C78 69.942 69.942 78 60 78Z" fill="white"/>
  <path d="M50 50L60 58L70 50V54L60 62L50 54V50Z" fill="white"/>
  <path d="M50 66L60 58L70 66V62L60 54L50 62V66Z" fill="white"/>
</svg>

