<svg width="120" height="80" viewBox="0 0 120 80" fill="none" xmlns="http://www.w3.org/2000/svg">
  <rect width="120" height="80" rx="8" fill="#1A1F71"/>
  <path d="M45.5 30L38 50H33L28.5 35.5L24 50H19L11.5 30H16.5L20 43.5L24.5 30H29L33.5 43.5L37 30H45.5Z" fill="white"/>
  <path d="M55 30C52.5 30 51 31 50.5 32.5L44 50H49L50.5 45.5H57L58 50H63L58.5 30H55ZM52 40.5L54.5 33.5L55.5 40.5H52Z" fill="white"/>
  <path d="M70 30L64 50H69L70 45.5H77L77.5 50H82.5L78.5 30H70ZM72 38.5L75 33.5L75.5 38.5H72Z" fill="white"/>
  <path d="M90 30H85L78.5 50H83.5L84.5 46H91.5L92 50H97L90 30ZM86 42.5L88.5 35.5L89.5 42.5H86Z" fill="#FFB600"/>
  <path d="M105 30H100L95.5 50H100.5L101.5 46H108.5L109 50H114L105 30ZM101 42.5L103.5 35.5L104.5 42.5H101Z" fill="#FFB600"/>
</svg>
